# xmcd
#
# Track frame offsets:
#	150
#	25152
#	43782
#	67212
#	89930
#	102965
#	118125
#	132095
#	159037
#	170352
#
# Disc length: 2566 seconds
#
# Revision: 3
# Processed by: cddbd v1.5.1PL0 Copyright (c) Steve Scherf et al.
# Submitted via: audiograbber 1.83.01
#
DISCID=870a040a
DTITLE=Various Artist - Best of the Blues
DYEAR=1990
DGENRE=Blues
TTITLE0=B.B. King - Thrill Is Gone 
TTITLE1=Bobby Bland - Stormy Monday 
TTITLE2=John Lee Hooker - Lonesome Mood 
TTITLE3=Brownie McGhee and Sonny Terry - Brownie's New Blues 
TTITLE4=T-Bone Walker - Why My Baby (Keep on Bothering Me)
TTITLE5=Big Joe Turner - Little Bittie Gal's Blues 
TTITLE6=Memphis Minnie McCoy - Moanin' The Blues 
TTITLE7=B.B. King and Bobby Bland - I Like To LIve The Love 
TTITLE8=Bobby Bland - Turn On Your Love Light 
TTITLE9=B.B. King and Carole King - Chains And Things 
EXTD=YEAR: 1990 ID3G:   0
EXTT0=B. B. King
EXTT1=Bobby Bland
EXTT2=John Lee Hooker
EXTT3=Brownie McGhee and Sonny Terry
EXTT4=T-Bone Walker
EXTT5=Big Joe Turner
EXTT6=Memphis Millie McCoy
EXTT7=B. B. King and Bobby Bland
EXTT8=Bobby Bland
EXTT9=B. B. King with Carole King on Piano
PLAYORDER=
